<?xml version="1.0" standalone="no"?>
<!DOCTYPE svg PUBLIC "-//W3C//DTD SVG 20010904//EN"
 "http://www.w3.org/TR/2001/REC-SVG-20010904/DTD/svg10.dtd">
<svg version="1.0" xmlns="http://www.w3.org/2000/svg"
 width="612.000000pt" height="612.000000pt" viewBox="0 0 612.000000 612.000000"
 preserveAspectRatio="xMidYMid meet">
<metadata>
Created by potrace 1.14, written by Peter Selinger 2001-2017
</metadata>
<g transform="translate(0.000000,612.000000) scale(0.100000,-0.100000)"
fill="#000000" stroke="none">
<path d="M2110 6113 c-767 -58 -1472 -519 -1838 -1203 -318 -595 -358 -1315
-107 -1940 66 -163 158 -336 243 -455 387 -539 936 -874 1587 -967 117 -17
483 -17 600 0 226 32 444 96 650 189 l119 54 821 -819 c451 -451 842 -834 868
-852 162 -108 359 -145 545 -100 260 62 455 266 508 530 32 159 0 340 -84 478
-30 49 -230 256 -867 892 l-829 828 53 117 c129 284 195 560 208 870 19 465
-110 939 -365 1335 -177 275 -444 536 -728 712 -406 251 -895 368 -1384 331z
m305 -253 c77 -6 178 -17 225 -25 973 -169 1689 -1015 1691 -1998 0 -167 -12
-292 -43 -437 -187 -883 -951 -1547 -1848 -1608 -164 -11 -386 3 -535 33 -210
42 -329 83 -520 177 -478 238 -843 652 -1018 1158 -46 133 -79 280 -102 463
-10 77 -7 346 5 443 64 522 325 1000 723 1328 336 276 730 434 1157 465 58 5
110 9 115 9 6 1 73 -3 150 -8z m3398 -4991 c40 -81 53 -165 39 -247 -11 -63
-48 -156 -75 -188 -72 -84 -143 -133 -229 -158 -116 -33 -240 -12 -343 59 -49
34 -1613 1591 -1605 1597 213 150 439 372 573 563 l19 26 797 -798 c669 -669
801 -807 824 -854z"/>
<path d="M2235 4962 c-6 -5 -57 -29 -115 -55 -567 -246 -917 -409 -942 -437
l-28 -30 0 -611 c0 -561 1 -613 17 -640 19 -32 24 -34 243 -132 648 -290 852
-377 883 -377 23 0 198 72 532 221 274 121 516 229 537 240 21 11 48 34 58 52
20 31 20 50 18 643 -3 596 -4 613 -23 634 -24 27 -55 42 -530 252 -93 42 -190
85 -215 96 -304 141 -402 173 -435 144z m267 -353 c111 -50 230 -103 263 -118
33 -15 95 -43 137 -61 43 -19 74 -38 70 -41 -11 -10 -667 -289 -679 -289 -6 0
-100 39 -209 86 -110 47 -263 113 -342 146 l-142 61 112 49 c141 62 287 127
313 139 198 90 261 118 267 119 3 0 98 -41 210 -91z m-1026 -448 c38 -16 148
-63 244 -105 96 -42 235 -102 308 -133 l132 -56 0 -429 c0 -235 -2 -428 -4
-428 -2 0 -32 13 -67 29 -35 16 -118 53 -184 82 -66 28 -147 64 -180 79 -33
15 -114 51 -180 80 -66 29 -126 57 -133 63 -10 8 -12 99 -12 428 1 231 3 419
4 419 2 0 34 -13 72 -29z m1704 -394 l0 -424 -27 -13 c-125 -58 -721 -320
-729 -320 -3 0 -4 192 -2 427 l3 427 100 44 c55 24 195 84 310 133 116 49 239
103 275 119 36 17 66 30 68 30 1 0 2 -191 2 -423z"/>
</g>
</svg>
